<svg height="409pt" viewBox="0 -75 409.6 409" width="409pt" xmlns="http://www.w3.org/2000/svg"><g fill="#0e65e5"><path d="m6.828125 41.261719c0-11.3125 9.203125-20.480469 20.453125-20.480469h355.039062c11.296876 0 20.453126 9.191406 20.453126 20.480469 0 11.308593-9.203126 20.476562-20.453126 20.476562h-355.039062c-11.296875 0-20.453125-9.191406-20.453125-20.476562zm0 0"/><path d="m382.320312 68.566406h-355.039062c-15.042969 0-27.28125-12.25-27.28125-27.304687 0-15.058594 12.238281-27.308594 27.28125-27.308594h355.039062c15.039063 0 27.28125 12.25 27.28125 27.308594 0 15.054687-12.242187 27.304687-27.28125 27.304687zm-355.039062-40.960937c-7.515625 0-13.628906 6.125-13.628906 13.65625 0 7.527343 6.113281 13.652343 13.628906 13.652343h355.039062c7.511719 0 13.625-6.125 13.625-13.652343 0-7.53125-6.113281-13.65625-13.625-13.65625zm0 0"/><path d="m6.828125 136.832031c0-11.308593 9.203125-20.480469 20.453125-20.480469h355.039062c11.296876 0 20.453126 9.195313 20.453126 20.480469 0 11.3125-9.203126 20.480469-20.453126 20.480469h-355.039062c-11.296875 0-20.453125-9.191406-20.453125-20.480469zm0 0"/><path d="m382.320312 164.140625h-355.039062c-15.042969 0-27.28125-12.25-27.28125-27.308594 0-15.054687 12.238281-27.304687 27.28125-27.304687h355.039062c15.039063 0 27.277344 12.25 27.277344 27.304687 0 15.058594-12.238281 27.308594-27.277344 27.308594zm-355.039062-40.960937c-7.515625 0-13.628906 6.125-13.628906 13.652343 0 7.53125 6.113281 13.65625 13.628906 13.65625h355.039062c7.511719 0 13.625-6.125 13.625-13.65625 0-7.527343-6.113281-13.652343-13.625-13.652343zm0 0"/><path d="m6.828125 232.40625c0-11.3125 9.203125-20.480469 20.453125-20.480469h355.039062c11.296876 0 20.453126 9.191407 20.453126 20.480469 0 11.3125-9.203126 20.480469-20.453126 20.480469h-355.039062c-11.296875 0-20.453125-9.191407-20.453125-20.480469zm0 0"/><path d="m382.320312 259.714844h-355.039062c-15.042969 0-27.28125-12.253906-27.28125-27.308594s12.238281-27.304688 27.28125-27.304688h355.039062c15.039063 0 27.277344 12.25 27.277344 27.304688s-12.238281 27.308594-27.277344 27.308594zm-355.039062-40.960938c-7.515625 0-13.628906 6.121094-13.628906 13.652344s6.113281 13.652344 13.628906 13.652344h355.039062c7.511719 0 13.625-6.121094 13.625-13.652344s-6.113281-13.652344-13.625-13.652344zm0 0"/></g><path d="m6.828125 27.605469c0-11.3125 9.203125-20.480469 20.453125-20.480469h355.039062c11.296876 0 20.453126 9.195312 20.453126 20.480469 0 11.3125-9.203126 20.480469-20.453126 20.480469h-355.039062c-11.296875 0-20.453125-9.191407-20.453125-20.480469zm0 0" fill="#2a8ee6"/><path d="m382.320312 54.914062h-355.039062c-15.042969 0-27.28125-12.25-27.28125-27.308593 0-15.054688 12.238281-27.304688 27.28125-27.304688h355.039062c15.039063 0 27.28125 12.25 27.28125 27.304688 0 15.058593-12.242187 27.308593-27.28125 27.308593zm-355.039062-40.960937c-7.515625 0-13.628906 6.125-13.628906 13.652344 0 7.53125 6.113281 13.65625 13.628906 13.65625h355.039062c7.511719 0 13.625-6.125 13.625-13.65625 0-7.527344-6.113281-13.652344-13.625-13.652344zm0 0" fill="#0e65e5"/><path d="m6.828125 123.179688c0-11.3125 9.203125-20.480469 20.453125-20.480469h355.039062c11.296876 0 20.453126 9.191406 20.453126 20.480469 0 11.3125-9.203126 20.480468-20.453126 20.480468h-355.039062c-11.296875 0-20.453125-9.191406-20.453125-20.480468zm0 0" fill="#94c1ff"/><path d="m382.320312 150.488281h-355.039062c-15.042969 0-27.28125-12.253906-27.28125-27.308593 0-15.054688 12.238281-27.304688 27.28125-27.304688h355.039062c15.039063 0 27.277344 12.25 27.277344 27.304688 0 15.054687-12.238281 27.308593-27.277344 27.308593zm-355.039062-40.960937c-7.515625 0-13.628906 6.121094-13.628906 13.652344s6.113281 13.652343 13.628906 13.652343h355.039062c7.511719 0 13.625-6.121093 13.625-13.652343s-6.113281-13.652344-13.625-13.652344zm0 0" fill="#0e65e5"/><path d="m6.828125 218.753906c0-11.3125 9.203125-20.480468 20.453125-20.480468h355.039062c11.296876 0 20.453126 9.191406 20.453126 20.480468 0 11.3125-9.203126 20.480469-20.453126 20.480469h-355.039062c-11.296875 0-20.453125-9.191406-20.453125-20.480469zm0 0" fill="#2a8ee6"/><path d="m382.320312 246.058594h-355.039062c-15.042969 0-27.28125-12.25-27.28125-27.304688 0-15.058594 12.238281-27.308594 27.28125-27.308594h355.039062c15.039063 0 27.277344 12.25 27.277344 27.308594 0 15.054688-12.238281 27.304688-27.277344 27.304688zm-355.039062-40.957032c-7.515625 0-13.628906 6.121094-13.628906 13.652344 0 7.527344 6.113281 13.652344 13.628906 13.652344h355.039062c7.511719 0 13.625-6.125 13.625-13.652344 0-7.53125-6.113281-13.652344-13.625-13.652344zm0 0" fill="#0e65e5"/><path d="m320.851562 252.886719c-3.773437 0-6.824218-3.058594-6.824218-6.828125v-27.304688c0-3.769531 3.050781-6.828125 6.824218-6.828125 3.773438 0 6.828126 3.058594 6.828126 6.828125v27.304688c0 3.769531-3.054688 6.828125-6.828126 6.828125zm0 0" fill="#fff"/><path d="m334.507812 239.234375h-27.308593c-3.773438 0-6.824219-3.058594-6.824219-6.828125s3.050781-6.828125 6.824219-6.828125h27.308593c3.773438 0 6.824219 3.058594 6.824219 6.828125s-3.050781 6.828125-6.824219 6.828125zm0 0" fill="#fff"/><path d="m95.574219 34.433594h-61.441407c-3.773437 0-6.824218-3.058594-6.824218-6.828125s3.050781-6.824219 6.824218-6.824219h61.441407c3.773437 0 6.824219 3.054688 6.824219 6.824219s-3.050782 6.828125-6.824219 6.828125zm0 0" fill="#fff"/></svg>